<?xml version='1.0' encoding='utf-8'?>
<svg xmlns="http://www.w3.org/2000/svg" version="1.1" width="1139px" height="813px" viewBox="-143 496 1139 813"> <g id="layer1"> <g style="fill:rgb(34,43,50); fill-opacity:1.0; stroke-linejoin: miter"> <path d="M-175.6061,470.18268L-175.71416,470.19348L-176.1564,1314.7588L1015.988,1314.759L1015.77216,470.2984L-175.6061,470.18268 Z"/> </g> <g style="fill:rgb(14,21,27); fill-opacity:1.0; stroke-linejoin: miter"> <path d="M-176.15674,1054.1306L-176.15639,1314.7588L1015.988,1314.759L1015.9875,1054.1311L-176.15674,1054.1306 Z M418.6881,1062.4736L418.6881,1062.4756L418.6881,1062.4739L418.688,1062.4746L418.688,1062.4758L418.688,1062.4746L418.6881,1062.4736 M422.1659,1062.4736L422.85883,1062.4739L423.5517,1062.4741L423.5511,1062.4741L423.5512,1062.4741L422.85858,1062.4739L422.1659,1062.4736 M418.65186,1062.4731L418.65436,1062.4731L418.65698,1062.4751L418.65698,1062.4746L418.6524,1062.4763L418.64777,1062.4741Q418.64984,1062.4736,418.65186,1062.4731 M418.74567,1062.4731L418.74567,1062.4741L418.74567,1062.4751Q418.7245,1062.4746,418.7033,1062.4741Q418.7245,1062.4736,418.74567,1062.4731 M418.68494,1062.4746L418.68494,1062.4751L418.68494,1062.4756Q418.67505,1062.4753,418.66516,1062.4751Q418.67505,1062.4749,418.68494,1062.4746 M418.6881,1062.4744L418.6881,1062.4756L418.68738,1062.4763L418.68665,1062.477L418.68585,1062.4763L418.68512,1062.4753L418.68597,1062.4751L418.68683,1062.4744L418.6881,1062.4763 M423.48242,1062.4741L423.4837,1062.4741L423.48492,1062.4761L423.48492,1062.4778L423.47638,1062.4756L423.4679,1062.4749L423.47516,1062.4744L423.48242,1062.4741 M423.67273,1062.4741L423.67273,1062.4751L423.67273,1062.4761Q423.65637,1062.4761,423.64008,1062.4758Q423.65637,1062.4751,423.67273,1062.4741 M427.81226,1062.4751L427.813,1062.4753L427.81384,1062.4756L427.8152,1062.4763L427.81665,1062.477L427.81586,1062.4766L427.81512,1062.4761L427.81512,1062.4763L427.8153,1062.4778L427.81665,1062.4756L427.81726,1062.4763L427.8178,1062.477L427.8178,1062.4751L427.81226,1062.4768 M423.61377,1062.4758L423.6139,1062.4761L423.6139,1062.4778L423.61383,1062.4768L423.61377,1062.4761L423.61383,1062.4761L423.61365,1062.4778L423.6136,1062.4763L423.61365,1062.4761L423.61377,1062.4758 M423.61176,1062.4761L423.6117,1062.4761L423.6117,1062.4763Q423.61176,1062.4763,423.61188,1062.4763L423.61176,1062.4763L423.61176,1062.4761 M425.60767,1062.4761L425.60767,1062.4763L425.60767,1062.4763L425.60516,1062.477L425.6026,1062.4783Q425.60516,1062.477,425.60767,1062.4761 M419.30353,1062.4751L419.3045,1062.4753L419.30554,1062.4758L419.3045,1062.4763L419.30353,1062.4768Q419.30353,1062.4761,419.30353,1062.4751 M419.30682,1062.4763L419.307,1062.4778L419.3072,1062.4763L419.307,1062.4766L419.30682,1062.4768Q419.30682,1062.4763,419.30682,1062.4763 M423.58264,1062.4751L423.58264,1062.4753L423.58258,1062.4756L423.58264,1062.4763L423.58264,1062.4768Q423.58264,1062.4761,423.58264,1062.4751 M423.5387,1062.4768L423.5387,1062.4788L423.5387,1062.477L423.53864,1062.4768L423.5385,1062.4788L423.5387,1062.4768 M418.22345,1062.4731L418.40106,1062.4731L418.5786,1062.4751Q418.55286,1062.4744,418.52692,1062.4751L418.54004,1062.4749L418.55328,1062.4746L418.55328,1062.4763Q418.56616,1062.4756,418.5786,1062.4749L418.5786,1062.4751L418.58856,1062.4749L418.59845,1062.4746Q418.59808,1062.4753,418.599,1062.4775Q418.59875,1062.4761,418.59857,1062.4746Q418.59875,1062.4756,418.599,1062.4763L418.599,1062.4756Q418.61017,1062.4751,418.62122,1062.4744L418.61646,1062.4741L418.61163,1062.4744L418.6267,1062.4736L418.6419,1062.4734Q418.6317,1062.4741,418.62122,1062.4744L418.63367,1062.4749L418.63367,1062.4741L418.63873,1062.4741L418.6438,1062.4744L418.6438,1062.4751L418.63873,1062.4749L418.63367,1062.4766L418.63367,1062.4761L418.66394,1062.4756L418.66394,1062.4775L418.5923,1062.477L418.52063,1062.4768Q418.51123,1062.4761,418.5019,1062.4749L418.20673,1062.4768L418.22345,1062.4731 M418.6692,1062.4758L418.6692,1062.4766L418.6692,1062.4775Q418.66656,1062.4783,418.664,1062.4795Q418.66656,1062.4775,418.6692,1062.4758 M422.14062,1062.4756L422.14703,1062.477L422.1535,1062.4758L422.1535,1062.4775L422.1325,1062.4763L422.11133,1062.4758L422.12598,1062.4756L422.14062,1062.477 M423.61298,1062.4758L423.6126,1062.4763L423.6128,1062.4783L423.61298,1062.4763L423.61298,1062.4775L423.61273,1062.477L423.61243,1062.4768L423.6125,1062.4766L423.6126,1062.4763L423.61243,1062.4766L423.61212,1062.4766L423.61194,1062.4763L423.61176,1062.4763L423.61182,1062.4766L423.61182,1062.4768L423.61163,1062.4768L423.61133,1062.477L423.61133,1062.4766L423.6115,1062.4763L423.61163,1062.4763L423.6115,1062.4761L423.61133,1062.4761L423.61218,1062.4758L423.61298,1062.4775 M423.61407,1062.4763L423.6147,1062.4768L423.6151,1062.4775L423.6147,1062.4768L423.61407,1062.4763L423.61407,1062.4763 M427.70496,1062.4766L427.72162,1062.4768L427.73834,1062.477L427.73438,1062.477L427.7303,1062.4775L427.70496,1062.4766 M422.06226,1062.477L422.06226,1062.4775L422.06226,1062.4778L422.06158,1062.4788L422.06085,1062.4795Q422.06158,1062.4783,422.06226,1062.477 M423.55078,1062.4741L423.55078,1062.4744L423.55017,1062.4749L423.54962,1062.4751Q423.55023,1062.4756,423.55066,1062.4758L423.54773,1062.4763L423.5448,1062.4763L423.5479,1062.477L423.5511,1062.4775L423.54047,1062.4766L423.54254,1062.4766L423.5448,1062.4763Q423.54376,1062.4763,423.54285,1062.4761L423.5456,1062.4753L423.54834,1062.4749L423.54834,1062.4761Q423.5489,1062.4756,423.54962,1062.4751Q423.54932,1062.4749,423.54883,1062.4746Q423.54993,1062.4744,423.55078,1062.4741 M423.55426,1062.4741L423.55426,1062.4761L423.55176,1062.4778L423.55176,1062.4795L423.5515,1062.4766L423.5512,1062.4761L423.5512,1062.4788L423.5511,1062.4795L423.5511,1062.4761Q423.5511,1062.4766,423.55103,1062.4778Q423.5509,1062.477,423.55078,1062.4761Q423.5509,1062.4766,423.55103,1062.4778L423.55426,1062.4741 M423.6098,1062.4741L423.6098,1062.4761L423.6109,1062.4778L423.6112,1062.4768Q423.6117,1062.477,423.6109,1062.4795L423.6112,1062.477L423.61108,1062.4788L423.6109,1062.477L423.6109,1062.4761L423.6098,1062.4778L423.58984,1062.4753L423.5987,1062.4763L423.6042,1062.4761L423.60974,1062.4778L423.6012,1062.4766L423.60516,1062.4768L423.60895,1062.477L423.60455,1062.477L423.60016,1062.4766L423.6012,1062.4783Q423.6001,1062.4763,423.5987,1062.4763L423.5968,1062.4778L423.58264,1062.4749Q423.58466,1062.4756,423.5868,1062.4761L423.5868,1062.4778L423.58264,1062.477L423.5786,1062.4766L423.5763,1062.4783L423.57654,1062.4763L423.57684,1062.4783L423.57452,1062.4763L423.5722,1062.4761L423.5722,1062.4763L423.56354,1062.4763L423.55487,1062.4761L423.5686,1062.4756L423.58234,1062.4749L423.57965,1062.4758L423.57684,1062.4763L423.5777,1062.4766L423.5805,1062.4783L423.58234,1062.4766L423.58234,1062.4749Q423.58246,1062.4766,423.5824,1062.4788L423.58252,1062.4749L423.5962,1062.4746L423.6098,1062.4741 M422.0855,1062.4739L422.0855,1062.4758L422.10748,1062.4775L422.10748,1062.4763L422.10828,1062.4763L422.10913,1062.4758L422.10925,1062.4775L422.10925,1062.4756L422.1093,1062.4758L422.10913,1062.4775L422.10822,1062.4768L422.1092,1062.4788L422.10858,1062.477L422.10797,1062.4788L422.10754,1062.477L422.1093,1062.479Q422.10956,1062.477,422.10986,1062.477L422.10956,1062.4788L422.1093,1062.4768L422.11005,1062.4788L422.11127,1062.4758L422.1139,1062.4775L422.11646,1062.4763Q422.11664,1062.477,422.11676,1062.4778L422.11676,1062.4797Q422.1162,1062.4778,422.11646,1062.4763L422.11,1062.4768L422.10986,1062.477L422.11304,1062.477L422.11633,1062.4778L422.1001,1062.4797Q422.1012,1062.4788,422.1023,1062.4778Q422.10175,1062.477,422.10114,1062.4768L422.09985,1062.4788L422.09985,1062.4763Q422.10065,1062.4763,422.10114,1062.4768L422.10187,1062.477L422.1026,1062.4788Q422.10272,1062.4778,422.1023,1062.4778L422.1029,1062.4795L422.10352,1062.4775L422.1062,1062.477L422.10547,1062.479L422.10474,1062.477L422.1057,1062.4768L422.1067,1062.4763L422.1046,1062.4763L422.1026,1062.4761L422.09467,1062.4758L422.0866,1062.4775L422.09503,1062.4763L422.09027,1062.4768L422.08533,1062.477L422.0923,1062.4778L422.09937,1062.4778L422.0782,1062.4797Q422.08167,1062.4788,422.08533,1062.477L422.07123,1062.4768L422.05707,1062.4763Q422.05713,1062.4788,422.057,1062.479L422.05707,1062.4758L422.0597,1062.4775L422.0597,1062.4758L422.0866,1062.4775L422.07947,1062.4756L422.07227,1062.4749L422.07892,1062.4746L422.0855,1062.4739 M419.83948,1062.4761L419.85773,1062.4763L419.8758,1062.4763L419.8758,1062.4783Q419.87384,1062.477,419.87177,1062.4763L419.87177,1062.4783L419.85553,1062.477L419.83948,1062.4766L419.83948,1062.4761 M423.58966,1062.4775L423.58966,1062.4778L423.58966,1062.4783L423.58923,1062.4778L423.58875,1062.4775L423.58923,1062.4795L423.58966,1062.4775 M427.44318,1062.4749L427.4447,1062.4753Q427.44672,1062.4761,427.44855,1062.4766L426.42273,1062.4763L427.01367,1062.477L427.6048,1062.4783Q427.62646,1062.4778,427.6482,1062.4775L427.59546,1062.4766Q427.5221,1062.4775,427.44904,1062.4783L427.4486,1062.4749L427.4486,1062.4783Q427.4513,1062.4763,427.44318,1062.4749 M423.45312,1062.4741L423.43903,1062.4753L423.42487,1062.4761L423.4524,1062.4778L423.4524,1062.4795L423.17706,1062.4768L423.17706,1062.4788L423.11853,1062.4778L423.06006,1062.4775L423.17072,1062.4768L423.07166,1062.4763L422.97266,1062.4761L422.97266,1062.4763Q422.93982,1062.4763,422.9071,1062.4758L422.9071,1062.4775Q422.90656,1062.4744,422.90674,1062.4775Q422.90137,1062.4768,422.90686,1062.4758L422.90137,1062.4775L422.90112,1062.4758L422.90112,1062.4775Q422.8684,1062.4768,422.83563,1062.4758Q422.83716,1062.4775,422.83258,1062.4795L422.83258,1062.4758L422.74084,1062.4775L422.64905,1062.4758L422.74084,1062.4768L422.83258,1062.4775L422.63812,1062.4768L422.44373,1062.4758L422.44373,1062.4775L422.44373,1062.4758L422.393,1062.4775L422.393,1062.4758L422.41394,1062.4775L422.43512,1062.4753L422.9441,1062.4749L423.45312,1062.4741 M425.12695,1062.4744L427.4486,1062.4749L427.62805,1062.4766L427.8075,1062.4751L427.44873,1062.4753L427.812,1062.4751L427.812,1062.4756Q427.75714,1062.4761,427.70233,1062.4766L427.64813,1062.4775Q427.67365,1062.4778,427.6991,1062.4783L427.65192,1062.48L427.60468,1062.4783L427.6001,1062.4783L427.59552,1062.48L426.42212,1062.4763L426.42212,1062.4783Q426.42035,1062.477,426.41827,1062.4763L426.41827,1062.4797L426.38336,1062.4763L425.66595,1062.4783Q425.67303,1062.4763,425.68,1062.4761Q425.67334,1062.4768,425.66638,1062.4778Q425.67334,1062.4766,425.68,1062.4753L425.50568,1062.4758L425.50568,1062.4775L425.32568,1062.4763L425.1457,1062.4751L425.0205,1062.4768Q425.07373,1062.4749,425.12695,1062.4744 M427.70374,1062.4766L427.70392,1062.4768L427.70404,1062.477Q427.70374,1062.4775,427.70325,1062.4778L427.70367,1062.4783L427.70306,1062.4795L427.7024,1062.48L427.70282,1062.479L427.70325,1062.4778L427.70282,1062.477L427.7024,1062.4768L427.70233,1062.477L427.70233,1062.4783L427.7024,1062.4783L427.70233,1062.4795L427.70233,1062.48L427.70233,1062.4778L427.70227,1062.477L427.70227,1062.4768L427.70227,1062.4775L427.70233,1062.4783L427.69952,1062.48L427.70087,1062.4783L427.70227,1062.4768L427.70227,1062.4766L427.70233,1062.4783L427.7024,1062.4768L427.7024,1062.4766L427.70374,1062.4783 M427.70496,1062.4768L427.71686,1062.477L427.72864,1062.4775Q427.71686,1062.4778,427.70496,1062.4783Q427.70496,1062.4775,427.70496,1062.4768 M418.20624,1062.4731L418.20624,1062.4751L415.83527,1062.4746L415.80072,1062.4744L415.7661,1062.4763Q415.7367,1062.4763,415.825,1062.4778L415.7661,1062.4797L415.766,1062.4744L415.5874,1062.4761L414.8111,1062.4753L414.0348,1062.4741L411.48248,1062.4749L408.9303,1062.4753L413.56824,1062.4741L418.20624,1062.4731 M427.44904,1062.4749L427.8178,1062.4766L427.81787,1062.4761L427.81805,1062.4768L428.04572,1062.4783L427.93207,1062.4795L427.8183,1062.4802L427.87518,1062.4797L427.93207,1062.4795L427.87518,1062.4797L427.8183,1062.4802Q427.786,1062.4795,427.75354,1062.4783L427.75354,1062.4775Q427.786,1062.4778,427.8183,1062.4783L427.8183,1062.4802L427.8181,1062.4756L427.8178,1062.477Q427.81915,1062.4768,427.8152,1062.4761L427.81268,1062.4768L427.81506,1062.4761L427.81378,1062.4756L427.81226,1062.4756Q427.81207,1062.4753,427.812,1062.4749L427.81226,1062.4768L427.6306,1062.4758L427.44904,1062.4749 M427.93207,1062.4778L427.9889,1062.4778L428.04572,1062.4788L427.98883,1062.479L427.98883,1062.4807Q427.96033,1062.4795,427.93207,1062.4778 M441.58197,1169.9675L441.58197,1169.9685L441.58197,1169.9692L441.58197,1169.971L441.5821,1169.9717L441.5821,1169.9727Q441.58032,1169.9739,441.5786,1169.9744L441.5786,1169.9727L441.5786,1169.9719L441.5786,1169.9675L441.58197,1169.9692 M441.61792,1171.2236L441.61816,1171.2241L441.61877,1171.2244L441.61896,1171.2249L441.61932,1171.2253L441.61957,1171.2253L441.61987,1171.2253L441.62018,1171.2258L441.62036,1171.2261L441.62036,1171.228L441.61566,1171.227L441.61078,1171.2263Q441.61426,1171.2253,441.61792,1171.2236 M441.5948,1175.2437L441.59216,1175.4426Q441.58124,1176.2422,441.5633,1177.0747Q441.2959,1177.1768,441.09943,1177.241Q441.38898,1177.1416,441.5476,1177.0779Q441.56787,1176.343,441.58698,1175.2437L441.5948,1175.2456"/> </g> <g style="fill:rgb(79,72,47); fill-opacity:1.0; stroke-linejoin: miter"> <path d="M500.6504,1057.2532L500.6504,1057.2561L335.37323,1059.5344L234.84845,1314.7583L607.1285,1314.7595L500.6504,1057.2532 Z M418.7682,1062.4731L418.7682,1062.4741L418.76434,1062.4768L416.3064,1062.4756L413.84833,1062.4741L416.3083,1062.4736L418.7682,1062.4731 M422.0564,1062.4739L422.08386,1062.4749L422.11133,1062.4758Q422.11133,1062.4749,422.11133,1062.4739L422.0564,1062.4758 M423.48248,1062.4741L423.48248,1062.4751L423.48248,1062.4761Q423.51685,1062.4751,423.5512,1062.4741L423.48248,1062.4761 M422.05127,1062.4736L423.5517,1062.4741L423.5512,1062.4761L427.81805,1062.4751L428.04572,1062.4768L427.81805,1062.4788Q427.81818,1062.4714,427.81793,1062.4788L423.53027,1062.4761L423.53027,1062.4778L422.44373,1062.4744L422.44373,1062.4763L421.4472,1062.4758L420.45062,1062.4756L422.0564,1062.4739L422.05127,1062.4736"/> </g> <g style="fill:rgb(14,21,27); fill-opacity:1.0; stroke-linejoin: miter"> <path d="M442.16583,1256.6189L427.30414,1260.5938Q427.943,1279.845,427.9251,1284.2698Q427.99152,1290.2319,427.45105,1290.6665Q427.4215,1290.7048,427.38177,1290.7048Q427.1717,1290.7048,426.6759,1289.633L408.32343,1286.7148L403.43665,1261.8518L391.43164,1259.1887L384.94537,1314.7588L421.0385,1314.759L464.86066,1314.7603L442.16583,1256.6189 Z"/> </g> <g style="fill:rgb(14,21,27); fill-opacity:1.0; stroke-linejoin: miter"> <path d="M413.30096,1058.459L413.29333,1058.4609Q257.44934,1060.6091,413.30096,1058.459"/> </g> <g style="fill:rgb(14,21,27); fill-opacity:1.0; stroke-linejoin: miter"> <path d="M417.3628,1036.8003L417.3628,1036.801L417.3628,1036.8015Q417.36212,1036.8025,417.3615,1036.8035Q417.36212,1036.802,417.3628,1036.8003"/> </g> <g style="fill:rgb(14,21,27); fill-opacity:1.0; stroke-linejoin: miter"> <path d="M419.2047,1036.8027L419.2047,1036.8027L419.18616,1036.8042L419.1676,1036.8027L419.2047,1036.8042"/> </g> <g style="fill:rgb(14,21,27); fill-opacity:1.0; stroke-linejoin: miter"> <path d="M420.82446,1036.8035L420.8241,1036.8035L420.82367,1036.8035Q420.8241,1036.8035,420.82446,1036.8035L420.82446,1036.8035"/> </g> <g style="fill:rgb(14,21,27); fill-opacity:1.0; stroke-linejoin: miter"> <path d="M421.88776,1036.8035L421.89087,1036.8054L421.89404,1036.804L421.89404,1036.8035L421.88776,1036.8054"/> </g> <g style="fill:rgb(14,21,27); fill-opacity:1.0; stroke-linejoin: miter"> <path d="M420.82446,1036.8035L420.82446,1036.804L420.82446,1036.8042L420.82465,1036.804L420.82495,1036.8059L420.82495,1036.804L420.8252,1036.8035L420.82477,1036.8054L420.82446,1036.8035"/> </g> <g style="fill:rgb(14,21,27); fill-opacity:1.0; stroke-linejoin: miter"> <path d="M420.82452,1036.8042L420.82385,1036.8042L420.82318,1036.8059L420.82385,1036.8042L420.82452,1036.8042Q420.82452,1036.8042,420.82452,1036.8042"/> </g> <g style="fill:rgb(14,21,27); fill-opacity:1.0; stroke-linejoin: miter"> <path d="M420.82446,1036.8042L420.82446,1036.8042L420.82452,1036.8062L420.8246,1036.8042L420.82446,1036.8062"/> </g> <g style="fill:rgb(14,21,27); fill-opacity:1.0; stroke-linejoin: miter"> <path d="M422.35248,1036.8013L422.35248,1036.8032L422.35455,1036.8047L422.3565,1036.803L422.3565,1036.8047L422.3443,1036.8035L422.3321,1036.803L422.34222,1036.802L422.35236,1036.8013L422.35236,1036.8032L422.35248,1036.8047L422.35248,1036.803L422.35236,1036.8013L422.35248,1036.8032"/> </g> <g style="fill:rgb(14,21,27); fill-opacity:1.0; stroke-linejoin: miter"> <path d="M422.32697,1036.8047L422.32672,1036.8064L422.32666,1036.8047L422.32666,1036.8047L422.32697,1036.8064"/> </g> <g style="fill:rgb(14,21,27); fill-opacity:1.0; stroke-linejoin: miter"> <path d="M422.32697,1036.8047L422.3274,1036.8064L422.32782,1036.8047L422.3274,1036.8047L422.3269,1036.8064L422.32697,1036.8047"/> </g> <g style="fill:rgb(14,21,27); fill-opacity:1.0; stroke-linejoin: miter"> <path d="M420.65442,1036.801L420.71344,1036.803L420.71344,1036.803Q420.735,1036.802,420.75653,1036.8013L420.75653,1036.8032L420.75732,1036.801L420.76196,1036.803L420.76196,1036.801Q420.7574,1036.8013,420.77112,1036.8032Q420.77222,1036.8027,420.77313,1036.8025L420.7727,1036.802L420.77112,1036.803L420.77112,1036.801Q420.7724,1036.803,420.77502,1036.801L420.77393,1036.8032L420.68604,1036.8035L420.59802,1036.8032Q420.6792,1036.8035,420.76025,1036.8042L420.6549,1036.8052L420.54962,1036.8062L420.54962,1036.8032L420.18066,1036.8047L419.8117,1036.803L419.72388,1036.8032L419.63617,1036.8035L420.5063,1036.8042L420.4558,1036.8042L420.40515,1036.8047L420.7741,1036.8047L420.7741,1036.8062L420.03552,1036.8042L420.22028,1036.8052L420.40515,1036.8064L419.9989,1036.8049L419.59265,1036.8035L419.54974,1036.8052Q419.5929,1036.8042,419.63617,1036.8035L419.4746,1036.8032L419.31317,1036.803L419.31317,1036.8032L419.22107,1036.8027L419.2671,1036.8042L419.31317,1036.803L419.31317,1036.8027Q419.26288,1036.8035,419.2124,1036.8042L419.21545,1036.8027L419.20465,1036.8042Q419.20715,1036.8035,419.20953,1036.8042Q419.2614,1036.8035,419.31317,1036.8025L419.31317,1036.8027L419.56244,1036.8042L419.8117,1036.803L420.18542,1036.802L420.55914,1036.801L420.55914,1036.803Q420.54492,1036.8025,420.54962,1036.8032Q420.57385,1036.8042,420.59802,1036.8047Q420.57935,1036.8035,420.56042,1036.803Q420.60748,1036.8022,420.65442,1036.801"/> </g> <g style="fill:rgb(14,21,27); fill-opacity:1.0; stroke-linejoin: miter"> <path d="M420.85876,1036.8047L420.85876,1036.8059L420.85876,1036.8066L420.84845,1036.8059L420.83813,1036.8047Q420.83618,1036.8059,420.83423,1036.8066Q420.84644,1036.8059,420.85876,1036.8047"/> </g> <g style="fill:rgb(14,21,27); fill-opacity:1.0; stroke-linejoin: miter"> <path d="M422.24762,1036.8018L422.25153,1036.802L422.25568,1036.8025L422.25568,1036.8035L422.25446,1036.8054Q422.2533,1036.8032,422.2519,1036.8027L422.25104,1036.803L422.2503,1036.8035L422.25104,1036.8049L422.2519,1036.8035L422.2519,1036.8042L422.25012,1036.8042L422.2483,1036.8059Q422.2492,1036.8035,422.2503,1036.8035L422.2469,1036.8032Q422.24695,1036.804,422.24683,1036.8047L422.2469,1036.804L422.23633,1036.8035L422.20245,1036.8047L422.20245,1036.8064L422.20227,1036.8081L422.20203,1036.8062L422.20203,1036.8047L422.20074,1036.8064L422.19952,1036.8047L422.19952,1036.8066L422.19934,1036.8047L422.19934,1036.8066L422.19745,1036.8047L422.19727,1036.8064L422.19727,1036.8081L422.1894,1036.8054L422.18164,1036.8042L422.23444,1036.8035L422.22827,1036.803L422.22205,1036.8027L422.23492,1036.8022L422.24762,1036.8018 M422.2467,1036.8032L422.2406,1036.8032L422.23444,1036.8035L422.2354,1036.8049L422.23633,1036.8035Q422.24146,1036.8035,422.2467,1036.8032 M422.1975,1036.8047L422.19757,1036.8064L422.19763,1036.8047L422.19855,1036.8049L422.19934,1036.8052L422.19855,1036.8049L422.1975,1036.8047"/> </g> <g style="fill:rgb(14,21,27); fill-opacity:1.0; stroke-linejoin: miter"> <path d="M417.76202,1036.8003L417.7638,1036.8003L417.7638,1036.8022L420.26227,1036.8008L420.26227,1036.8027L417.77252,1036.8013L417.77252,1036.8032L417.77448,1036.8013L417.77448,1036.8032L417.82947,1036.8022L417.82947,1036.804L417.78314,1036.8022L417.77448,1036.8013L417.77448,1036.8032L417.76202,1036.8013L417.76202,1036.804L417.76202,1036.8059L417.76263,1036.804L417.76263,1036.8059L417.76202,1036.804L417.76202,1036.8059L417.76202,1036.804L417.7536,1036.8035L417.7536,1036.8054L417.59283,1036.8018L417.59283,1036.8035L417.62134,1036.8013L417.57294,1036.8015L417.57294,1036.8035L417.48517,1036.8003L417.48517,1036.8022L417.48517,1036.8003L417.48517,1036.8022L417.76202,1036.8003L417.76202,1036.8022L417.76202,1036.8003 Z M417.76202,1036.8003L417.76202,1036.8013L417.77252,1036.8032L417.77252,1036.8013L417.7638,1036.8003L417.7638,1036.8022L417.76202,1036.8003 Z"/> </g> <g style="fill:rgb(14,21,27); fill-opacity:1.0; stroke-linejoin: miter"> <path d="M440.273,1142.9543L440.27417,1142.9546L440.26587,1142.9563Q440.26556,1142.9546,440.26526,1142.9543 Z"/> </g> <g style="fill:rgb(14,21,27); fill-opacity:1.0; stroke-linejoin: miter"> <path d="M439.0301,1142.565L439.03827,1142.5674L439.02277,1142.5693Q439.02252,1142.5664,439.02234,1142.565 Z"/> </g> <g style="fill:rgb(14,21,27); fill-opacity:1.0; stroke-linejoin: miter"> <path d="M418.23566,1036.8035L418.2141,1036.804L418.27765,1036.8059L418.11914,1036.8035L418.11914,1036.8052L418.16034,1036.8035L418.16034,1036.8052L418.2141,1036.804L418.16174,1036.8035L418.16174,1036.8052L418.23566,1036.8035 Z"/> </g> <g style="fill:rgb(14,21,27); fill-opacity:1.0; stroke-linejoin: miter"> <path d="M421.06415,1036.8032L421.0902,1036.8035L421.12152,1036.804L421.12152,1036.8059L421.0902,1036.8049L420.89484,1036.8047L420.89484,1036.8064L421.06415,1036.8032 Z"/> </g> <g style="fill:rgb(14,21,27); fill-opacity:1.0; stroke-linejoin: miter"> <path d="M422.1994,1036.8047L422.19952,1036.8066L422.19952,1036.8047L422.1994,1036.8066L422.1994,1036.8047 Z"/> </g> <g style="fill:rgb(14,21,27); fill-opacity:1.0; stroke-linejoin: miter"> <path d="M420.7741,1036.8042L420.7741,1036.8047L420.77887,1036.8042L420.77887,1036.8062L420.7741,1036.8042 Z"/> </g> <g style="fill:rgb(14,21,27); fill-opacity:1.0; stroke-linejoin: miter"> <path d="M420.7793,1036.8042L420.77887,1036.8042L420.77887,1036.8062L420.83813,1036.8042L420.7793,1036.8042 Z"/> </g> <g style="fill:rgb(14,21,27); fill-opacity:1.0; stroke-linejoin: miter"> <path d="M418.63257,1036.804L418.6485,1036.8042L418.62952,1036.804L418.62952,1036.8059L418.63257,1036.804 Z"/> </g> <g style="fill:rgb(14,21,27); fill-opacity:1.0; stroke-linejoin: miter"> <path d="M418.52142,1036.8035L418.49097,1036.8042L418.46057,1036.804L418.46057,1036.8059L418.52142,1036.8035 Z"/> </g> <g style="fill:rgb(14,21,27); fill-opacity:1.0; stroke-linejoin: miter"> <path d="M418.01526,1036.8035L418.00952,1036.804L417.96838,1036.8035L417.96838,1036.8054L418.01526,1036.8035 Z"/> </g> <g style="fill:rgb(14,21,27); fill-opacity:1.0; stroke-linejoin: miter"> <path d="M417.77197,1036.804L417.7705,1036.8059L417.7693,1036.804L417.7693,1036.8059L417.77197,1036.804 Z"/> </g> <g style="fill:rgb(14,21,27); fill-opacity:1.0; stroke-linejoin: miter"> <path d="M424.29022,1036.8035L424.3969,1036.8052L424.29022,1036.8035L424.29022,1036.8052L424.29022,1036.8035 Z"/> </g> <g style="fill:rgb(14,21,27); fill-opacity:1.0; stroke-linejoin: miter"> <path d="M417.78302,1036.8022L417.8308,1036.804L417.8308,1036.8022L417.8955,1036.8032L417.88892,1036.8047L417.88892,1036.8032L417.78198,1036.8022L417.78198,1036.804L417.78302,1036.8022 Z"/> </g> <g style="fill:rgb(14,21,27); fill-opacity:1.0; stroke-linejoin: miter"> <path d="M417.23755,1036.8013L417.2386,1036.802L417.24225,1036.8035L417.24225,1036.802L417.22766,1036.8022L417.22974,1036.804L417.22974,1036.8022L417.2426,1036.802L417.2426,1036.8035L417.24658,1036.802L417.24658,1036.8035L417.23694,1036.802L417.23694,1036.8035L417.24707,1036.802L417.24707,1036.8035L417.34448,1036.8032L417.38092,1036.803L417.38092,1036.8047L417.284,1036.8018L417.284,1036.8035L417.35065,1036.8013L417.35065,1036.8032L417.34448,1036.8013L417.28204,1036.8018L417.28204,1036.8035L417.27026,1036.8015L417.27026,1036.8035L417.26978,1036.8015L417.27026,1036.8035L417.27026,1036.8015L417.23755,1036.8013 Z"/> </g> <g style="fill:rgb(14,21,27); fill-opacity:1.0; stroke-linejoin: miter"> <path d="M421.51672,1036.8027L421.6181,1036.803L421.6181,1036.8047L421.6184,1036.803L421.6184,1036.8047L421.51672,1036.8027 Z"/> </g> <g style="fill:rgb(14,21,27); fill-opacity:1.0; stroke-linejoin: miter"> <path d="M420.65448,1036.801L420.65448,1036.801L419.3133,1036.8025L419.3133,1036.8042L420.54962,1036.8027L420.54962,1036.8042L420.65448,1036.8027L420.75653,1036.801L420.75653,1036.803L420.71344,1036.801L420.71344,1036.803L420.65448,1036.801 Z"/> </g> <g style="fill:rgb(14,21,27); fill-opacity:1.0; stroke-linejoin: miter"> <path d="M417.23694,1036.802L417.22974,1036.8022L417.22974,1036.804L417.22864,1036.8022L417.23694,1036.802 Z"/> </g> <g style="fill:rgb(14,21,27); fill-opacity:1.0; stroke-linejoin: miter"> <path d="M417.3628,1036.8003L417.31598,1036.801L417.31598,1036.803L417.34515,1036.8013L417.40192,1036.8008L417.40192,1036.8027L417.3739,1036.8003L417.3739,1036.8022L417.3628,1036.8003 Z"/> </g> <g style="fill:rgb(14,21,27); fill-opacity:1.0; stroke-linejoin: miter"> <path d="M407.6787,1036.8003L407.64722,1036.8022L407.64716,1036.8003L407.6787,1036.8022 Z"/> </g> <g style="fill:rgb(14,21,27); fill-opacity:1.0; stroke-linejoin: miter"> <path d="M440.273,1142.9543L440.27417,1142.9546L440.26587,1142.9563Q440.26556,1142.9546,440.26526,1142.9543 Z"/> </g> <g style="fill:rgb(14,21,27); fill-opacity:1.0; stroke-linejoin: miter"> <path d="M439.0301,1142.565L439.03827,1142.5674L439.02277,1142.5693Q439.02252,1142.5664,439.02234,1142.565 Z"/> </g> <g style="fill:rgb(14,21,27); fill-opacity:1.0; stroke-linejoin: miter"> <path d="M417.48517,1036.8003L420.65448,1036.8008L420.65448,1036.8027L420.76935,1036.8008L420.7741,1036.801L420.7741,1036.803L422.24683,1036.8013L422.24683,1036.8032L422.26868,1036.8013L422.26813,1036.8032L422.26813,1036.8013L422.3307,1036.8032L422.3307,1036.8013L422.26868,1036.8032L423.86267,1036.8015L423.86267,1036.8035L426.53503,1036.8022L426.53503,1036.804L426.52905,1036.8022L426.52905,1036.804L426.53503,1036.8022L426.52905,1036.804L426.52905,1036.8022L426.53522,1036.804L426.53522,1036.8022L426.53522,1036.804L426.7627,1036.8059L426.53522,1036.8074L426.53522,1036.804L426.53522,1036.8059L426.4165,1036.8035L426.4165,1036.8054L424.3969,1036.8027L424.3969,1036.8042L422.32056,1036.8032L422.32056,1036.8047L422.23492,1036.8032L422.23492,1036.8047L422.23438,1036.8032L422.23438,1036.8047L421.6264,1036.803L421.16064,1036.803L420.86322,1036.8047L420.86322,1036.803L420.83813,1036.8027L420.83813,1036.8042L418.27765,1036.8022L418.27765,1036.804L418.02045,1036.8022L418.6485,1036.8025L418.02045,1036.8022L417.7705,1036.8022L417.8955,1036.8032L417.7705,1036.804L417.48517,1036.8059L417.57214,1036.8027L417.48517,1036.8022L417.48517,1036.8003 Z"/> </g> <g style="fill:rgb(14,21,27); fill-opacity:1.0; stroke-linejoin: miter"> <path d="M421.6208,1036.803L422.20258,1036.8047L422.20258,1036.8064L422.2,1036.8047L421.6208,1036.803 Z"/> </g> <g style="fill:rgb(14,21,27); fill-opacity:1.0; stroke-linejoin: miter"> <path d="M426.53522,1036.8022L426.53522,1036.804L426.53522,1036.8059L426.7627,1036.804L426.53522,1036.8022 Z"/> </g> <g style="fill:rgb(14,21,27); fill-opacity:1.0; stroke-linejoin: miter"> <path d="M414.51685,1036.8035L414.53027,1036.8035L414.4668,1036.8035L414.4668,1036.8049L414.51685,1036.8035 Z"/> </g> <g style="fill:rgb(14,21,27); fill-opacity:1.0; stroke-linejoin: miter"> <path d="M422.3307,1036.8013L424.3969,1036.8027L424.3969,1036.8042L426.52905,1036.8022L426.52905,1036.804L426.52887,1036.8022L426.52905,1036.804L426.52905,1036.8022L423.86267,1036.8015L423.86267,1036.8035L422.3307,1036.8013 Z"/> </g> <g style="fill:rgb(14,21,27); fill-opacity:1.0; stroke-linejoin: miter"> <path d="M417.2198,1036.8003L412.70886,1036.8013L412.7517,1036.8032L412.7517,1036.8013L417.19543,1036.8003L417.23755,1036.8022L417.23755,1036.8003L417.2198,1036.8003 Z"/> </g> <g style="fill:rgb(14,21,27); fill-opacity:1.0; stroke-linejoin: miter"> <path d="M440.2663,1142.9519L440.28198,1142.9573L440.27417,1142.9587Q440.28796,1143.6091,440.2989,1144.2944L440.29553,1144.2964Q440.28058,1143.606,440.25854,1142.9519 Z"/> </g> <g style="fill:rgb(14,21,27); fill-opacity:1.0; stroke-linejoin: miter"> <path d="M439.0301,1142.565L439.03827,1142.5674L439.02277,1142.5693Q439.02252,1142.5664,439.02234,1142.565 Z"/> </g> <g style="fill:rgb(14,21,27); fill-opacity:1.0; stroke-linejoin: miter"> <path d="M426.53503,1036.8022L426.53522,1036.804L426.53522,1036.8022L426.52887,1036.804L426.53503,1036.8022 Z"/> </g> <g style="fill:rgb(14,21,27); fill-opacity:1.0; stroke-linejoin: miter"> <path d="M426.7708,1036.8003L426.77045,1036.8022L426.7699,1036.8003Q426.7699,1036.8003,426.7699,1036.8003 Z"/> </g> <g style="fill:rgb(14,21,27); fill-opacity:1.0; stroke-linejoin: miter"> <path d="M422.69684,1032.6387Q422.69702,1032.6389,422.6972,1032.6389L422.68958,1032.6406L412.15137,1032.7842L420.85266,1032.6641L422.69684,1032.6387 Z"/> </g> <g style="fill:rgb(14,21,27); fill-opacity:1.0; stroke-linejoin: miter"> <path d="M440.28027,1151.4019Q439.3824,1151.7527,437.8988,1152.0742Q439.3824,1151.7527,440.27246,1151.4019 Z"/> </g> <g style="fill:rgb(14,21,27); fill-opacity:1.0; stroke-linejoin: miter"> <path d="M439.0301,1142.565L439.03827,1142.5674L439.02277,1142.5693Q439.02252,1142.5664,439.02234,1142.565 Z"/> </g> <g style="fill:rgb(14,21,27); fill-opacity:1.0; stroke-linejoin: miter"> <path d="M424.65118,1064.7317L425.00635,1067.5779L424.64355,1064.7317 Z"/> </g> <g style="fill:rgb(14,21,27); fill-opacity:1.0; stroke-linejoin: miter"> <path d="M426.7708,1036.8003L407.6482,1036.8003L407.64716,1036.8022L426.76318,1036.8003 Z"/> </g> <g style="fill:rgb(79,72,47); fill-opacity:1.0; stroke-linejoin: miter"> <path d="M531.1559,758.38983L530.1236,773.73456Q526.8618,794.3444,518.0156,811.2863Q513.59265,819.7575,507.77356,827.31134Q505.73645,831.66156,487.17505,847.9101Q483.58405,852.0163,461.8562,862.7602Q452.94495,866.48676,443.4049,868.58234Q424.32477,872.7734,402.72943,870.43976Q382.1194,867.17804,365.17743,858.33185Q356.70648,853.90875,349.15253,848.08966Q331.07004,832.3204,328.55402,827.4913Q300.96558,789.2028,305.64038,747.9111Q307.6952,727.3514,315.81326,709.98065Q319.87234,701.2955,325.44727,693.4074Q327.37717,688.8753,345.40295,671.71686Q375.36047,646.38544,418.07397,645.30743Q423.91138,644.49475,448.31537,649.52673Q457.7978,652.0698,466.4831,656.1289Q483.85352,664.24695,498.03497,678.42865Q512.2165,692.61005,520.3346,709.98065Q523.3115,713.82513,529.10114,737.83014Q530.8864,747.7115,531.1559,758.38983"/> </g> <g style="fill:rgb(79,72,47); fill-opacity:1.0; stroke-linejoin: miter"> <path d="M376.33832,853.79376L459.80963,853.795L501.54535,1062.4731L334.60266,1062.4734L376.33832,853.79376"/> </g> <g> <g style="fill:rgb(255,201,77); fill-opacity:1.0; stroke-linejoin: miter"> <path d="M524.9303,763.6474L523.9549,778.1474Q517.0197,821.96674,483.37067,848.2391Q449.48883,874.4902,403.57422,869.5286Q359.75458,862.59344,333.48242,828.9445Q325.06445,818.0677,319.61475,805.24115L315.0345,792.0544Q311.25992,778.4438,311.21753,763.64764Q312.36334,718.2402,342.51498,688.08844Q372.66663,657.93677,418.07397,656.7908Q463.4812,657.9368,493.6328,688.08844Q523.7845,718.24005,524.9303,763.6474"/> </g> <g style="fill:rgb(255,201,77); fill-opacity:1.0; stroke-linejoin: miter"> <path d="M378.63593,853.79913L378.63593,853.79913L457.5119,853.8Q477.23083,952.3947,496.94983,1050.9895Q418.07385,1050.9895,339.19803,1050.99L378.63593,853.79913"/> </g> </g> <g style="fill:rgb(79,72,47); fill-opacity:1.0; stroke-linejoin: miter"> <path d="M440.29553,1144.2944L440.2967,1144.2952L440.2978,1144.2957L440.2984,1144.2966L440.2989,1144.2976L440.2989,1144.2964L440.2989,1144.2981L440.29553,1144.2998L440.29553,1144.2991L440.2954,1144.2981L440.29553,1144.2976L440.2954,1144.2969L440.29553,1144.2971Q440.29553,1144.2961,440.2954,1144.2957L440.2954,1144.2952L440.29553,1144.2952L440.29553,1144.2944"/> </g> <g style="fill:rgb(79,72,47); fill-opacity:1.0; stroke-linejoin: miter"> <path d="M440.33282,1145.5488L440.33282,1145.5505Q440.3308,1145.5515,440.3285,1145.5525L440.32996,1145.5518L440.33142,1145.5515L440.33142,1145.553L440.3239,1145.5525L440.3164,1145.5525L440.3164,1145.5542L440.31622,1145.5532L440.31628,1145.553L440.31616,1145.5525L440.31628,1145.5542Q440.31622,1145.5522,440.31622,1145.5515L440.31628,1145.5532L440.31628,1145.5508L440.3164,1145.5525L440.3164,1145.5505L440.31708,1145.5525L440.31763,1145.55L440.31836,1145.552L440.31885,1145.55L440.31964,1145.55Q440.32007,1145.55,440.3208,1145.5496L440.32257,1145.5515L440.32306,1145.5496L440.3236,1145.5515L440.33002,1145.5532L440.33026,1145.5508L440.33038,1145.55L440.3307,1145.55L440.3308,1145.5493L440.33112,1145.5496L440.3313,1145.5488Q440.33148,1145.5488,440.3318,1145.5488L440.33282,1145.5505"/> </g> <g style="fill:rgb(79,72,47); fill-opacity:1.0; stroke-linejoin: miter"> <path d="M438.60168,1151.9131Q438.27765,1151.9932,437.91864,1152.0718L437.9051,1152.0732Q438.26733,1151.9932,438.59393,1151.9131 Z"/> </g> <g style="fill:rgb(79,72,47); fill-opacity:1.0; stroke-linejoin: miter"> <path d="M440.3117,1149.5708Q440.28925,1150.4663,440.26453,1151.405Q440.28925,1150.4663,440.3039,1149.5708 Z"/> </g> <g style="fill:rgb(79,72,47); fill-opacity:1.0; stroke-linejoin: miter"> <path d="M440.273,1142.9543L440.27417,1142.9546L440.26587,1142.9563Q440.26556,1142.9546,440.26526,1142.9543 Z"/> </g> <g style="fill:rgb(79,72,47); fill-opacity:1.0; stroke-linejoin: miter"> <path d="M439.0301,1142.565L439.03827,1142.5674L439.02277,1142.5693Q439.02252,1142.5664,439.02234,1142.565 Z"/> </g> <g style="fill:rgb(79,72,47); fill-opacity:1.0; stroke-linejoin: miter"> <path d="M420.82825,1036.801L421.16064,1036.8015L421.16064,1036.8035L422.1994,1036.8013L422.1994,1036.8032L420.82825,1036.801 Z"/> </g> <g style="fill:rgb(253,217,8); fill-opacity:1.0; stroke-linejoin: miter"> <path d="M373.94928,1107.0691L373.8792,1107.1318L373.82397,1107.1873L373.78394,1107.2354L373.75897,1107.2756L373.74884,1107.3088L373.75372,1107.3347L373.77356,1107.353L373.80865,1107.3645L373.85864,1107.3682Q373.90057,1107.3696,374.00592,1107.3525Q373.98572,1107.2429,373.9522,1107.0691L373.94928,1107.0698 Z"/> </g> <g style="fill:rgb(254,192,182); fill-opacity:1.0; stroke-linejoin: miter"> <path d="M438.95386,1142.5386L446.2362,1144.8201Q443.73834,1149.0437,442.33527,1150.1643Q441.82312,1150.675,440.5382,1151.2903Q439.61597,1151.7021,437.8988,1152.0742L438.95386,1142.5386"/> </g> <g style="fill:rgb(254,192,182); fill-opacity:1.0; stroke-linejoin: miter"> <path d="M388.92932,1145.9021L389.20923,1146.4094Q391.0227,1149.7722,392.32635,1151.394Q393.48163,1152.886,395.88666,1154.4839L397.1894,1144.8857L388.92932,1145.9021"/> </g> <g style="fill:rgb(0,0,0); fill-opacity:1.0; stroke-linejoin: miter"> <path d="M410.56342,1058.9629L410.31366,1058.5515Q408.3028,1055.2864,407.6369,1052.9387Q406.76178,1050.042,406.3869,1046.4873Q406.0119,1043.6599,406.29224,1040.8594Q406.4616,1039.4722,406.97076,1038.1687Q407.71014,1036.5686,407.98218,1036.2905Q409.68127,1033.8303,412.70496,1032.4597Q415.31757,1031.3452,418.09186,1031.4548Q423.63782,1031.6201,426.6167,1036.5249Q427.10803,1037.3774,427.47943,1038.3381L427.81915,1039.3193Q428.12738,1040.325,428.30103,1041.406Q428.6527,1043.5776,428.41022,1045.9224Q427.7904,1051.1885,424.22272,1059.353L410.56342,1058.9629"/> </g> <g style="fill:rgb(255,193,182); fill-opacity:1.0; stroke-linejoin: miter"> <path d="M410.55396,1063.5647L424.2094,1063.9382Q424.07465,1062.2429,424.42975,1060.6724Q424.7094,1059.2302,426.1136,1054.8994Q426.88403,1055.625,427.39648,1054.8838Q428.287,1053.4976,428.65454,1051.6553Q428.97736,1050.3152,428.70435,1048.9373Q428.3819,1047.7415,427.82306,1047.6682Q427.47083,1047.6758,427.24744,1048.2756L426.3667,1051.7773Q425.91315,1053.2991,425.75287,1053.5803Q425.4148,1054.491,424.4496,1055.6592Q423.01318,1057.1104,421.84375,1057.5151Q419.964,1058.2778,417.92432,1058.2612Q415.57965,1058.262,413.4051,1057.6697Q411.71655,1057.1487,411.4926,1056.9912Q410.37274,1056.4705,409.73535,1055.8264Q409.17792,1055.3633,408.61536,1054.0962Q408.339,1053.3611,408.15118,1052.6035Q407.59167,1049.4773,407.40015,1049.0054Q407.11334,1048.0286,406.823,1048.3167Q405.8368,1050.3596,406.5374,1053.6433Q406.90277,1055.0042,407.38654,1055.4075Q407.76978,1055.7498,408.48267,1055.3086L410.55396,1063.5647"/> </g> <g style="fill:rgb(255,255,255); fill-opacity:1.0; stroke-linejoin: miter"> <path d="M408.7364,1066.9519L410.01788,1061.8159Q416.12775,1061.8037,424.25317,1061.669L425.00635,1067.5779L408.7364,1066.9519"/> </g> <g style="fill:rgb(0,0,0); fill-opacity:1.0; stroke-linejoin: miter"> <path d="M403.36456,1258.272L403.5398,1258.863Q406.0329,1265.7046,398.77808,1265.1995Q396.22467,1265.1487,395.0318,1264.6956Q393.69495,1264.3223,393.03412,1262.8318Q390.86743,1262.4998,390.33917,1262.0518Q389.17206,1261.574,388.7174,1258.9558Q388.01324,1254.2605,394.01923,1255.6775Q390.8629,1246.1606,391.21753,1235.2458Q391.3357,1231.8806,391.75934,1227.791Q394.49762,1204.8003,394.44653,1203.6855Q395.05347,1197.1521,395.66394,1182.959Q394.36908,1148.4438,395.34058,1137.8613Q395.39258,1136.1936,396.17316,1130.4905Q396.42694,1128.2378,398.45428,1119.3088Q398.92456,1116.491,398.84863,1116.0627Q398.8847,1111.6013,396.28418,1106.8848Q395.0091,1115.093,394.7848,1120.4504Q394.0349,1127.2334,397.6856,1144.2944L389.2444,1149.1323L388.84692,1147.5312Q383.6687,1127.8325,383.6834,1115.4141Q383.28558,1104.1848,388.8161,1075.616Q400.55585,1072.4319,408.68524,1065.0771Q412.84967,1064.1257,415.5747,1064.1099Q418.9737,1064.0679,424.69073,1064.7363Q432.51855,1071.814,443.18243,1073.8391Q451.04645,1104.867,451.2669,1114.1467L451.64636,1122.5176L448.63898,1146.667Q441.04596,1147.7327,439.58942,1144.5054Q438.6115,1141.9004,438.81494,1139.384L439.5846,1128.2078Q439.69098,1127.334,439.62494,1123.2183Q439.29474,1116.7341,438.11078,1110.6301Q437.83716,1109.094,437.55457,1107.562Q434.6316,1115.1726,434.9154,1118.3982Q435.10828,1121.085,435.3756,1121.623Q438.9298,1131.3359,439.02148,1132.8325Q439.94806,1136.6963,440.2422,1142.4995Q440.75458,1155.8711,438.1524,1184.4236L438.31995,1211.7561L439.9983,1254.346Q445.92255,1250.9485,445.07043,1256.2717Q444.34692,1258.5525,442.95398,1259.6345L435.34515,1265.1926Q428.46686,1267.508,426.8719,1264.5122Q426.09314,1263.2405,427.4715,1257.4834Q423.71667,1231.3845,424.0973,1232.543Q423.74866,1230.46,424.03674,1221.2861Q423.99292,1218.9993,423.64392,1215.5894L418.9635,1180.2214L417.0667,1167.71Q412.9651,1185.6721,408.79333,1209.2263L403.36456,1258.272"/> </g> </g> </svg>